<?xml version="1.0" encoding="utf-8"?>
<!-- Generator: Adobe Illustrator 16.0.0, SVG Export Plug-In . SVG Version: 6.00 Build 0)  -->
<!DOCTYPE svg PUBLIC "-//W3C//DTD SVG 1.1//EN" "http://www.w3.org/Graphics/SVG/1.1/DTD/svg11.dtd">
<svg version="1.1" id="圖層_2" xmlns="http://www.w3.org/2000/svg" xmlns:xlink="http://www.w3.org/1999/xlink" x="0px" y="0px"
	 width="60px" height="60px" viewBox="0 0 60 60" enable-background="new 0 0 60 60" xml:space="preserve">
<path fill="#FFFFFF" d="M45.574,21.069c-0.229-0.424-0.555-0.784-0.945-1.077c-0.59-0.426-1.274-0.686-2.059-0.686H17.428
	c-0.784,0-1.469,0.261-2.057,0.686c-0.391,0.293-0.719,0.652-0.945,1.077C14.13,21.56,14,22.115,14,22.735v14.53
	c0,0.652,0.197,1.241,0.489,1.763c0.262,0.426,0.588,0.753,0.981,1.045c0.554,0.392,1.24,0.62,1.958,0.62h25.143
	c0.72,0,1.405-0.229,1.958-0.62c0.394-0.261,0.72-0.619,0.981-1.045C45.836,38.506,46,37.918,46,37.266v-14.53
	C46,22.147,45.836,21.591,45.574,21.069z M17.428,20.744h25.144c0.327,0,0.62,0.064,0.882,0.197l-12.605,9.796
	c-0.23,0.194-0.523,0.293-0.815,0.293c-0.294,0-0.588-0.098-0.817-0.293L16.612,20.94C16.808,20.808,17.101,20.744,17.428,20.744z
	 M15.403,37.299V22.767c0-0.262,0.066-0.554,0.164-0.784l9.502,7.381l-9.502,8.718C15.469,37.819,15.403,37.56,15.403,37.299z
	 M42.57,39.29H17.428c-0.327,0-0.62-0.064-0.881-0.196l9.632-8.881l2.091,1.633c0.49,0.357,1.078,0.586,1.697,0.586
	c0.62,0,1.209-0.195,1.698-0.586l2.092-1.633l9.631,8.881C43.191,39.226,42.898,39.29,42.57,39.29z M34.93,29.331l9.502-7.38
	c0.098,0.229,0.164,0.49,0.164,0.784v14.53c0,0.261-0.066,0.554-0.164,0.786L34.93,29.331z"/>
</svg>
