<?xml version="1.0" encoding="utf-8"?>
<!-- Generator: Adobe Illustrator 16.0.0, SVG Export Plug-In . SVG Version: 6.00 Build 0)  -->
<!DOCTYPE svg PUBLIC "-//W3C//DTD SVG 1.1//EN" "http://www.w3.org/Graphics/SVG/1.1/DTD/svg11.dtd">
<svg version="1.1" id="圖層_1" xmlns="http://www.w3.org/2000/svg" xmlns:xlink="http://www.w3.org/1999/xlink" x="0px" y="0px"
	 width="60px" height="60px" viewBox="0 0 60 60" enable-background="new 0 0 60 60" xml:space="preserve">
<g id="圖層_1_1_" display="none">
	<g display="inline">
		<path fill="#5E5A5A" d="M47.538,29.421h-1.115v-2.228c-0.149-9.092-7.622-16.341-16.691-16.192
			c-8.858,0.146-16.004,7.311-16.15,16.192v2.228h-1.12c-1.359,0.003-2.46,1.106-2.462,2.468v3.27
			c0.002,1.359,1.104,2.465,2.462,2.469h2.956V27.194c0-8.075,6.528-14.62,14.582-14.62c8.055,0,14.582,6.545,14.582,14.62v10.435
			h1.663c-0.668,3.863-4.185,6.99-8.772,7.958c0.369-0.286,0.729-0.592,1.065-0.913l0.034-0.031l0.111-0.117
			c2.851-2.899,4.51-6.77,4.646-10.84c0.193,0.035,0.387,0.076,0.587,0.107l0.304-1.822c-16.729-2.603-19.197-15.472-19.292-16.006
			l-0.889,0.161l-0.889,0.156c0.191,0.889,0.459,1.76,0.8,2.603c-4.862,2.518-7.938,7.913-7.938,13.996l0,0
			c0,7.984,5.396,14.576,12.289,15.369c0.302,0.035,0.604,0.053,0.889,0.066c0.351,0.431,0.876,0.684,1.431,0.686H34
			c0.814,0,1.534-0.531,1.777-1.311c6.476-0.504,11.646-4.771,12.352-10.144c1.098-0.271,1.867-1.258,1.871-2.389v-3.271
			C49.997,30.527,48.896,29.424,47.538,29.421z M11.84,35.16v-3.27c0-0.35,0.281-0.632,0.627-0.632h1.115v4.527h-1.12
			C12.118,35.786,11.84,35.506,11.84,35.16z M41.527,33.318c-0.055,3.8-1.606,7.42-4.313,10.074
			c-0.646,0.611-1.358,1.147-2.125,1.601c-0.312-0.22-0.685-0.339-1.065-0.339h-3.379c-0.995,0.002-1.812,0.787-1.855,1.783
			c-6.106-0.529-10.938-6.408-10.938-13.562c0-5.24,2.707-10.083,6.817-12.311C26.742,24.814,31.436,30.989,41.527,33.318z
			 M34.044,47.134c0,0.015-0.012,0.025-0.026,0.025l-3.404-0.025l0.027-0.639l3.404,0.026L34.044,47.134L34.044,47.134z
			 M47.538,31.266c0.346,0,0.627,0.281,0.627,0.629l0,0v3.269c0,0.346-0.281,0.628-0.627,0.628l0,0h-1.115V31.27h1.115V31.266z"/>
		<rect x="23.951" y="29.536" fill="#5E5A5A" width="2" height="4.01"/>
		<rect x="34.201" y="29.536" fill="#5E5A5A" width="2" height="4.01"/>
	</g>
</g>
<g id="圖層_2" display="none">
	<path display="inline" fill="#5E5A5A" d="M47.521,19.953c-0.258-0.478-0.625-0.882-1.064-1.212
		c-0.662-0.478-1.434-0.771-2.314-0.771H15.856c-0.882,0-1.653,0.294-2.313,0.771c-0.441,0.33-0.809,0.734-1.065,1.212
		C12.146,20.505,12,21.129,12,21.827v16.347c0,0.734,0.221,1.396,0.551,1.983c0.294,0.479,0.661,0.846,1.103,1.176
		c0.624,0.44,1.396,0.696,2.203,0.696h28.286c0.812,0,1.58-0.256,2.203-0.696c0.441-0.294,0.809-0.697,1.104-1.176
		c0.366-0.589,0.55-1.249,0.55-1.983V21.827C48,21.165,47.816,20.541,47.521,19.953z M15.856,19.586h28.287
		c0.366,0,0.696,0.073,0.991,0.221l-14.18,11.021c-0.259,0.22-0.588,0.33-0.918,0.33c-0.332,0-0.662-0.11-0.919-0.33L14.938,19.807
		C15.158,19.659,15.489,19.586,15.856,19.586z M13.579,38.211V21.863c0-0.294,0.074-0.624,0.184-0.882l10.69,8.303l-10.69,9.808
		C13.653,38.798,13.579,38.505,13.579,38.211z M44.143,40.452H15.856c-0.367,0-0.698-0.074-0.991-0.222l10.836-9.991l2.352,1.837
		c0.551,0.402,1.212,0.66,1.91,0.66c0.698,0,1.359-0.221,1.91-0.66l2.352-1.837l10.836,9.991
		C44.84,40.378,44.51,40.452,44.143,40.452z M35.547,29.247l10.689-8.302c0.109,0.257,0.184,0.551,0.184,0.882v16.347
		c0,0.294-0.074,0.624-0.184,0.883L35.547,29.247z"/>
</g>
<g id="圖層_3" display="none">
	<g display="inline">
		<path fill="#5E5A5A" d="M41.91,14H18.088C15.83,14,14,15.831,14,18.089v23.823C14,44.17,15.83,46,18.088,46H41.91
			c2.258,0,4.09-1.83,4.09-4.088V18.089C46,15.831,44.168,14,41.91,14z M41.115,33.463c-2.907,3.749-6.809,6.285-10.879,8.577
			c-0.342,0.192-0.782,0.212-1.443,0.381c0.122-0.825,0.211-1.354,0.277-1.886c0.18-1.418-0.123-1.84-1.521-2.076
			c-2.587-0.438-4.973-1.35-6.979-3.075c-4.851-4.171-4.741-10.532,0.228-14.699c5.549-4.651,14.994-3.987,19.82,1.393
			C43.574,25.374,43.822,29.972,41.115,33.463z"/>
		<g>
			<path fill="#5E5A5A" d="M21.225,25.254h1.432v4.749h2.311v1.199h-3.742L21.225,25.254L21.225,25.254z"/>
			<path fill="#5E5A5A" d="M26,25.254h1.432v5.948H26V25.254z"/>
			<path fill="#5E5A5A" d="M28.801,25.254h1.455l1.479,2.847l0.584,1.318h0.041c-0.08-0.631-0.19-1.486-0.19-2.198v-1.967h1.356
				v5.948H32.07l-1.471-2.87l-0.584-1.304h-0.04c0.063,0.664,0.185,1.479,0.185,2.199v1.975h-1.359V25.254z"/>
			<path fill="#5E5A5A" d="M34.912,25.254h3.773v1.184h-2.345v1.103h1.991v1.2h-1.991v1.263h2.433v1.199h-3.861V25.254
				L34.912,25.254z"/>
		</g>
	</g>
</g>
<g id="圖層_4" display="none">
	<path display="inline" fill="#5E5A5A" d="M39.984,17.672c-1.644,0-3.123-0.008-4.604,0.002c-1.449,0.011-2.17,0.688-2.207,2.104
		c-0.025,1.028,0.018,2.059-0.021,3.086c-0.024,0.622,0.258,0.781,0.85,0.771c1.659-0.026,3.318-0.009,4.977-0.009
		c0.319,0,0.64,0,1.021,0c-0.277,2.167-0.541,4.224-0.811,6.347c-2.025,0-3.969,0-5.998,0c0,6.324,0,12.571,0,18.925
		c-0.393,0.021-0.699,0.054-1.01,0.055c-2.312,0.013-4.625-0.016-6.935,0.045c-0.802,0.021-1.008-0.23-1.005-0.975
		c0.029-5.631,0.019-11.263,0.02-16.893c0-0.338,0-0.675,0-1.092c-1.452,0-2.831,0-4.265,0c0-2.148,0-4.217,0-6.396
		c1.065,0,2.125-0.069,3.172,0.021c0.95,0.081,1.156-0.269,1.119-1.109c-0.065-1.426-0.042-2.858-0.007-4.286
		c0.093-3.875,2.13-6.283,6.095-6.929c1.824-0.297,3.712-0.246,5.573-0.314c1.123-0.041,2.252-0.036,3.376,0.011
		c0.227,0.009,0.626,0.295,0.63,0.459C40.001,13.521,39.984,15.543,39.984,17.672z"/>
</g>
<g id="圖層_5_1_" display="none">
	<g display="inline">
		<path fill="#5E5A5A" d="M46.7,13c-6.589,0-13.179,0-19.767,0c-1.912,0-3.293,1.36-3.295,3.242c-0.002,1.765,0,3.529,0,5.293
			c0,0.131,0,0.262,0,0.412c-0.204,0-0.354,0-0.504,0c-3.283,0-6.564-0.002-9.847,0.001c-1.894,0.002-3.281,1.36-3.283,3.219
			c-0.005,4.137-0.005,8.274,0,12.412c0.002,1.767,1.401,3.142,3.19,3.159c0.426,0.004,0.854,0,1.333,0c0,0.193-0.001,0.33,0,0.465
			c0.007,1.604,0.011,3.205,0.021,4.809c0.002,0.512,0.269,0.875,0.714,0.967c0.455,0.092,0.77-0.121,1.024-0.476
			c1.307-1.812,2.624-3.619,3.925-5.437c0.169-0.236,0.341-0.336,0.644-0.336c4.064,0.012,8.129,0.01,12.193,0.008
			c1.938-0.002,3.312-1.354,3.315-3.262c0.002-1.752,0-3.504,0-5.258c0-0.133,0-0.266,0-0.431c0.972,0,1.902,0.01,2.834-0.007
			c0.257-0.006,0.408,0.078,0.556,0.281c1.315,1.836,2.644,3.666,3.972,5.496c0.313,0.436,0.688,0.576,1.099,0.438
			c0.426-0.142,0.631-0.46,0.634-0.99c0.006-1.604,0.012-3.206,0.021-4.81c0-0.131,0.012-0.264,0.019-0.412
			c0.435,0,0.823,0.001,1.215-0.001c1.911-0.007,3.29-1.362,3.291-3.248c0.004-4.1,0.004-8.2,0-12.301
			C49.996,14.359,48.611,13.001,46.7,13z M26.558,37.932l-1.448-1.435c-0.688,0.389-1.503,0.586-2.426,0.586
			c-0.772,0-1.473-0.14-2.081-0.414c-0.611-0.274-1.135-0.668-1.555-1.168c-0.414-0.492-0.732-1.084-0.945-1.759
			c-0.211-0.663-0.318-1.402-0.318-2.195c0-0.79,0.107-1.526,0.318-2.189c0.213-0.674,0.531-1.266,0.945-1.759
			c0.42-0.499,0.943-0.892,1.555-1.167c0.608-0.274,1.309-0.413,2.081-0.413c0.282,0,0.552,0.024,0.813,0.061v2.068
			c-0.258-0.087-0.527-0.145-0.813-0.145c-0.378,0-0.733,0.077-1.058,0.229c-0.324,0.152-0.609,0.375-0.85,0.665
			c-0.246,0.297-0.443,0.67-0.586,1.11c-0.146,0.447-0.221,0.966-0.221,1.541c0,0.574,0.074,1.093,0.22,1.537
			c0.144,0.438,0.341,0.812,0.587,1.112c0.241,0.291,0.527,0.517,0.852,0.671c0.523,0.249,1.167,0.298,1.736,0.138
			c0.051-0.013,0.101-0.029,0.149-0.046l-0.837-0.841l1.426-1.449l0.899,0.896c0.091-0.191,0.17-0.399,0.235-0.623
			c0.121-0.407,0.182-0.879,0.182-1.396c0-0.042-0.008-0.076-0.008-0.115c0.521,0.289,1.119,0.453,1.755,0.453h0.425
			c-0.012,0.256-0.033,0.51-0.072,0.756c-0.058,0.355-0.141,0.702-0.247,1.028c-0.106,0.328-0.235,0.642-0.382,0.933
			c-0.092,0.187-0.193,0.359-0.299,0.524l1.467,1.431L26.558,37.932z M48.182,28.499c0,0.979-0.523,1.5-1.513,1.502
			c-0.655,0.001-1.312-0.002-1.969,0.001c-0.675,0.003-1.032,0.343-1.041,1.006c-0.013,0.956-0.011,1.912-0.015,2.87
			c0,0.118,0,0.237,0,0.45c-0.139-0.174-0.213-0.264-0.283-0.36c-0.82-1.132-1.65-2.258-2.454-3.401
			c-0.289-0.407-0.642-0.571-1.146-0.569c-4.242,0.012-8.484,0.007-12.727,0.006c-1.076,0-1.582-0.495-1.582-1.544
			c-0.001-4.051-0.001-8.102,0-12.152c0-1.002,0.52-1.514,1.537-1.514c6.551,0,13.104,0,19.652,0c1.016,0,1.533,0.515,1.533,1.519
			C48.182,20.372,48.182,24.435,48.182,28.499z"/>
		<path fill="#5E5A5A" d="M36.646,17.387L31.71,27.559h1.69l1.328-2.72h3.928l1.265,2.72h2.535l-4.737-10.172H36.646z M35.189,23.91
			l1.549-3.216l1.498,3.216H35.189z"/>
	</g>
</g>
<g id="圖層_6">
	<g>
		<path fill="#FFFFFF" d="M30,11.827c-5.523,0-10,4.477-10,10s4.477,10,10,10c5.521,0,10-4.477,10-10S35.521,11.827,30,11.827z
			 M35.352,24.976L30,20.276l-5.35,4.7l-0.792-0.901L30,18.679l6.143,5.396L35.352,24.976z"/>
		<g enable-background="new    ">
			<path fill="#FFFFFF" d="M16.817,35.902h8.068v2.121h-2.707v6.47h-2.654v-6.47h-2.707V35.902z"/>
			<path fill="#FFFFFF" d="M25.342,40.204c0-1.402,0.391-2.494,1.172-3.274c0.781-0.781,1.869-1.173,3.264-1.173
				c1.429,0,2.531,0.384,3.304,1.151c0.773,0.767,1.16,1.843,1.16,3.226c0,1.005-0.168,1.827-0.506,2.47
				c-0.338,0.645-0.826,1.145-1.465,1.5c-0.641,0.357-1.438,0.537-2.39,0.537c-0.969,0-1.771-0.154-2.405-0.464
				c-0.634-0.309-1.149-0.797-1.544-1.465S25.342,41.208,25.342,40.204z M27.997,40.216c0,0.867,0.161,1.49,0.483,1.869
				s0.761,0.567,1.315,0.567c0.57,0,1.012-0.187,1.324-0.557c0.312-0.371,0.469-1.037,0.469-1.998c0-0.81-0.162-1.398-0.488-1.771
				s-0.769-0.561-1.328-0.561c-0.535,0-0.965,0.188-1.289,0.567C28.159,38.713,27.997,39.341,27.997,40.216z"/>
			<path fill="#FFFFFF" d="M35.66,35.902h4.412c0.961,0,1.682,0.229,2.16,0.687c0.478,0.457,0.717,1.106,0.717,1.951
				c0,0.867-0.26,1.545-0.781,2.033c-0.521,0.487-1.318,0.731-2.389,0.731h-1.453v3.188H35.66V35.902z M38.326,39.564h0.65
				c0.512,0,0.871-0.088,1.078-0.268c0.207-0.178,0.311-0.404,0.311-0.683c0-0.271-0.09-0.498-0.27-0.687
				c-0.182-0.188-0.52-0.281-1.016-0.281h-0.756L38.326,39.564L38.326,39.564z"/>
		</g>
	</g>
</g>
</svg>
