<?xml version="1.0" encoding="utf-8"?>
<!-- Generator: Adobe Illustrator 16.0.0, SVG Export Plug-In . SVG Version: 6.00 Build 0)  -->
<!DOCTYPE svg PUBLIC "-//W3C//DTD SVG 1.1//EN" "http://www.w3.org/Graphics/SVG/1.1/DTD/svg11.dtd">
<svg version="1.1" id="圖層_3" xmlns="http://www.w3.org/2000/svg" xmlns:xlink="http://www.w3.org/1999/xlink" x="0px" y="0px"
	 width="60px" height="60px" viewBox="0 0 60 60" enable-background="new 0 0 60 60" xml:space="preserve">
<g>
	<path fill-rule="evenodd" clip-rule="evenodd" fill="#FFFFFF" d="M41.91,14H18.088C15.83,14,14,15.831,14,18.089v23.823
		C14,44.17,15.83,46,18.088,46H41.91c2.258,0,4.09-1.83,4.09-4.088V18.089C46,15.831,44.168,14,41.91,14z M41.115,33.463
		c-2.907,3.749-6.808,6.285-10.879,8.577c-0.342,0.192-0.782,0.212-1.443,0.381c0.122-0.826,0.211-1.354,0.277-1.886
		c0.18-1.418-0.123-1.84-1.521-2.076c-2.587-0.438-4.973-1.35-6.979-3.075c-4.851-4.171-4.741-10.532,0.228-14.699
		c5.549-4.651,14.994-3.987,19.82,1.393C43.574,25.374,43.822,29.972,41.115,33.463z"/>
	<g>
		<path fill="#FFFFFF" d="M21.225,25.254h1.432v4.749h2.311v1.199h-3.742V25.254z"/>
		<path fill="#FFFFFF" d="M26,25.254h1.432v5.948H26V25.254z"/>
		<path fill="#FFFFFF" d="M28.801,25.254h1.455l1.479,2.847l0.584,1.318h0.04c-0.08-0.631-0.192-1.486-0.192-2.198v-1.967h1.359
			v5.948H32.07l-1.471-2.87l-0.584-1.304h-0.04c0.063,0.664,0.185,1.479,0.185,2.199v1.975h-1.359V25.254z"/>
		<path fill="#FFFFFF" d="M34.912,25.254h3.774v1.184h-2.343v1.103h1.991v1.2h-1.991v1.263h2.431v1.199h-3.862V25.254z"/>
	</g>
</g>
</svg>
