<?xml version="1.0" encoding="utf-8"?>
<!-- Generator: Adobe Illustrator 16.0.0, SVG Export Plug-In . SVG Version: 6.00 Build 0)  -->
<!DOCTYPE svg PUBLIC "-//W3C//DTD SVG 1.1//EN" "http://www.w3.org/Graphics/SVG/1.1/DTD/svg11.dtd">
<svg version="1.1" id="圖層_1" xmlns="http://www.w3.org/2000/svg" xmlns:xlink="http://www.w3.org/1999/xlink" x="0px" y="0px"
	 width="60px" height="60px" viewBox="0 0 60 60" enable-background="new 0 0 60 60" xml:space="preserve">
<g>
	<path fill="#FFFFFF" d="M44.907,29.508H43.96v-1.894c-0.128-7.728-6.479-13.89-14.188-13.764
		c-7.529,0.124-13.604,6.215-13.728,13.764v1.894h-0.952c-1.155,0.002-2.091,0.94-2.093,2.098v2.777
		c0.001,1.157,0.938,2.095,2.093,2.098h2.513v-8.865c0-6.864,5.548-12.427,12.395-12.427c6.846,0,12.396,5.563,12.396,12.427v8.87
		h1.413c-0.567,3.282-3.557,5.94-7.456,6.764c0.313-0.244,0.617-0.503,0.904-0.776l0.029-0.026l0.096-0.1
		c2.423-2.467,3.833-5.754,3.951-9.214c0.166,0.029,0.327,0.065,0.498,0.091l0.257-1.549c-14.22-2.212-16.316-13.151-16.399-13.604
		l-0.755,0.137l-0.756,0.133c0.162,0.755,0.39,1.496,0.68,2.212c-4.132,2.141-6.747,6.726-6.747,11.896l0,0
		c0,6.787,4.586,12.391,10.445,13.063c0.257,0.03,0.514,0.046,0.756,0.058c0.298,0.366,0.745,0.581,1.217,0.582H33.4
		c0.691,0,1.304-0.451,1.511-1.113c5.504-0.429,9.9-4.054,10.498-8.62c0.933-0.231,1.588-1.07,1.591-2.031v-2.779
		C46.998,30.448,46.062,29.51,44.907,29.508z M14.563,34.386v-2.778c0-0.296,0.239-0.535,0.534-0.535h0.948v3.848h-0.952
		C14.8,34.918,14.563,34.68,14.563,34.386z M39.798,32.82c-0.047,3.229-1.365,6.308-3.666,8.563
		c-0.549,0.521-1.154,0.978-1.806,1.36c-0.265-0.188-0.582-0.288-0.906-0.288h-2.872c-0.846,0.001-1.541,0.67-1.579,1.517
		c-5.19-0.451-9.297-5.448-9.297-11.526c0-4.454,2.301-8.571,5.794-10.464C27.23,25.592,31.221,30.841,39.798,32.82z M33.438,44.563
		c0,0.013-0.011,0.022-0.022,0.022l-2.894-0.022l0.023-0.542l2.894,0.021L33.438,44.563L33.438,44.563z M44.907,31.076
		c0.294,0,0.533,0.238,0.533,0.534l0,0v2.776c0,0.294-0.239,0.533-0.533,0.533l0,0H43.96v-3.844H44.907L44.907,31.076z"/>
	<rect x="24.859" y="29.605" fill="#FFFFFF" width="1.699" height="3.409"/>
	<rect x="33.571" y="29.605" fill="#FFFFFF" width="1.7" height="3.409"/>
</g>
</svg>
