<?xml version="1.0" encoding="utf-8"?>
<!-- Generator: Adobe Illustrator 16.0.0, SVG Export Plug-In . SVG Version: 6.00 Build 0)  -->
<!DOCTYPE svg PUBLIC "-//W3C//DTD SVG 1.1//EN" "http://www.w3.org/Graphics/SVG/1.1/DTD/svg11.dtd">
<svg version="1.1" id="圖層_4" xmlns="http://www.w3.org/2000/svg" xmlns:xlink="http://www.w3.org/1999/xlink" x="0px" y="0px"
	 width="60px" height="60px" viewBox="0 0 60 60" enable-background="new 0 0 60 60" xml:space="preserve">
<path fill="#FFFFFF" d="M37.987,20.138c-1.313,0-2.499-0.006-3.682,0.001c-1.16,0.009-1.735,0.55-1.766,1.683
	c-0.021,0.823,0.013,1.647-0.019,2.469c-0.02,0.497,0.206,0.625,0.68,0.617c1.327-0.021,2.654-0.007,3.981-0.007
	c0.255,0,0.51,0,0.817,0c-0.223,1.733-0.434,3.379-0.648,5.078c-1.621,0-3.176,0-4.799,0c0,5.059,0,10.056,0,15.141
	c-0.312,0.017-0.56,0.042-0.808,0.043c-1.849,0.01-3.699-0.012-5.546,0.035c-0.642,0.017-0.806-0.185-0.804-0.778
	c0.023-4.505,0.015-9.009,0.016-13.513c0-0.271,0-0.54,0-0.874c-1.162,0-2.265,0-3.412,0c0-1.718,0-3.373,0-5.117
	c0.852,0,1.7-0.055,2.538,0.017c0.76,0.065,0.925-0.215,0.895-0.887c-0.052-1.141-0.034-2.286-0.005-3.429
	c0.074-3.1,1.704-5.026,4.875-5.543c1.459-0.238,2.969-0.197,4.458-0.251c0.898-0.033,1.802-0.028,2.7,0.009
	c0.181,0.007,0.501,0.236,0.504,0.367C38,16.817,37.987,18.435,37.987,20.138z"/>
</svg>
