<?xml version="1.0" encoding="utf-8"?>
<!-- Generator: Adobe Illustrator 16.0.0, SVG Export Plug-In . SVG Version: 6.00 Build 0)  -->
<!DOCTYPE svg PUBLIC "-//W3C//DTD SVG 1.1//EN" "http://www.w3.org/Graphics/SVG/1.1/DTD/svg11.dtd">
<svg version="1.1" id="圖層_5_1_" xmlns="http://www.w3.org/2000/svg" xmlns:xlink="http://www.w3.org/1999/xlink" x="0px"
	 y="0px" width="60px" height="60px" viewBox="0 0 60 60" enable-background="new 0 0 60 60" xml:space="preserve">
<g>
	<path fill="#FFFFFF" d="M44.194,15.55c-5.6,0-11.201,0-16.801,0c-1.625,0-2.799,1.156-2.8,2.756c-0.002,1.5,0,3,0,4.499
		c0,0.111,0,0.223,0,0.351c-0.174,0-0.301,0-0.429,0c-2.79,0-5.579-0.002-8.369,0.001c-1.61,0.001-2.789,1.155-2.791,2.735
		c-0.004,3.517-0.004,7.033,0,10.55c0.001,1.5,1.19,2.67,2.711,2.685c0.363,0.004,0.726,0,1.133,0c0,0.165,0,0.281,0,0.396
		c0.006,1.363,0.01,2.725,0.018,4.087c0.001,0.435,0.228,0.743,0.607,0.821c0.387,0.078,0.655-0.103,0.87-0.403
		c1.111-1.54,2.23-3.076,3.336-4.621c0.143-0.201,0.29-0.286,0.547-0.286c3.454,0.011,6.909,0.009,10.363,0.007
		c1.647-0.001,2.815-1.151,2.818-2.771c0.001-1.49,0-2.979,0-4.468c0-0.113,0-0.226,0-0.366c0.825,0,1.616,0.008,2.408-0.006
		c0.219-0.003,0.348,0.067,0.472,0.241c1.119,1.561,2.248,3.115,3.377,4.671c0.267,0.368,0.582,0.49,0.933,0.373
		c0.36-0.121,0.535-0.392,0.537-0.842c0.005-1.363,0.011-2.725,0.017-4.088c0-0.111,0.011-0.225,0.017-0.35
		c0.368,0,0.699,0,1.032-0.001c1.624-0.007,2.797-1.158,2.798-2.761c0.003-3.485,0.003-6.97,0-10.456
		C46.996,16.706,45.819,15.552,44.194,15.55z M27.074,36.741l-1.23-1.219c-0.584,0.331-1.278,0.498-2.062,0.498
		c-0.656,0-1.252-0.119-1.769-0.353c-0.52-0.233-0.965-0.567-1.322-0.992c-0.352-0.419-0.622-0.922-0.803-1.495
		c-0.179-0.563-0.271-1.191-0.271-1.866c0-0.671,0.091-1.297,0.271-1.86c0.181-0.573,0.451-1.076,0.803-1.495
		c0.357-0.424,0.802-0.758,1.322-0.992c0.517-0.233,1.113-0.352,1.769-0.352c0.24,0,0.469,0.021,0.691,0.052v1.757
		c-0.219-0.074-0.448-0.123-0.691-0.123c-0.321,0-0.623,0.066-0.899,0.194c-0.276,0.129-0.518,0.319-0.723,0.565
		c-0.209,0.252-0.376,0.569-0.498,0.943c-0.124,0.38-0.187,0.821-0.187,1.31s0.062,0.929,0.187,1.307
		c0.123,0.372,0.29,0.69,0.499,0.945c0.205,0.248,0.448,0.438,0.725,0.57c0.444,0.212,0.992,0.253,1.475,0.117
		c0.044-0.011,0.086-0.024,0.127-0.039l-0.712-0.715l1.212-1.231l0.764,0.762c0.077-0.162,0.145-0.34,0.2-0.529
		c0.103-0.347,0.155-0.747,0.155-1.188c0-0.035-0.006-0.064-0.006-0.098c0.442,0.245,0.95,0.386,1.492,0.386h0.361
		c-0.01,0.218-0.028,0.434-0.061,0.642c-0.049,0.302-0.12,0.597-0.21,0.874c-0.089,0.279-0.199,0.546-0.324,0.793
		c-0.078,0.157-0.164,0.306-0.254,0.445l1.247,1.217L27.074,36.741z M45.454,28.724c0,0.833-0.446,1.275-1.286,1.277
		c-0.557,0-1.115-0.002-1.674,0c-0.573,0.003-0.877,0.292-0.885,0.856c-0.01,0.812-0.009,1.625-0.013,2.439c0,0.1,0,0.201,0,0.382
		c-0.116-0.147-0.18-0.225-0.24-0.307c-0.697-0.962-1.403-1.918-2.086-2.891c-0.246-0.348-0.546-0.487-0.973-0.485
		c-3.605,0.01-7.212,0.005-10.816,0.005c-0.915,0-1.345-0.421-1.345-1.312c-0.001-3.443-0.001-6.886,0-10.329
		c0-0.852,0.442-1.287,1.307-1.287c5.567,0,11.137,0,16.705,0c0.862,0,1.304,0.438,1.304,1.291
		C45.454,21.816,45.454,25.27,45.454,28.724z"/>
	<path fill="#FFFFFF" d="M35.649,19.28l-4.196,8.646h1.438l1.129-2.312h3.338l1.075,2.312h2.155l-4.027-8.646H35.649z
		 M34.411,24.824l1.316-2.734l1.273,2.734H34.411z"/>
</g>
</svg>
