<?xml version="1.0" encoding="utf-8"?>
<!-- Generator: Adobe Illustrator 16.0.0, SVG Export Plug-In . SVG Version: 6.00 Build 0)  -->
<!DOCTYPE svg PUBLIC "-//W3C//DTD SVG 1.1//EN" "http://www.w3.org/Graphics/SVG/1.1/DTD/svg11.dtd">
<svg version="1.1" id="圖層_6" xmlns="http://www.w3.org/2000/svg" xmlns:xlink="http://www.w3.org/1999/xlink" x="0px" y="0px"
	 width="120px" height="120px" viewBox="0 0 120 120" enable-background="new 0 0 120 120" xml:space="preserve">
<g>
	<rect x="52.373" y="36.808" fill="#FFFFFF" width="35.062" height="8.552"/>
	<polygon fill="#FFFFFF" points="69.178,50.344 78.384,50.344 78.384,58.468 	"/>
	<g>
		<path fill="#FFFFFF" d="M88.096,33.333H31.903c-1.052,0-1.903,0.853-1.903,1.906v49.522c0,1.054,0.852,1.905,1.903,1.905h56.192
			c1.052,0,1.904-0.852,1.904-1.905V35.239C90,34.186,89.147,33.333,88.096,33.333z M76.192,37.459c1.401,0,2.538,1.136,2.538,2.54
			c0,1.403-1.137,2.541-2.538,2.541c-1.404,0-2.542-1.138-2.542-2.541C73.65,38.595,74.788,37.459,76.192,37.459z M68.732,37.459
			c1.403,0,2.541,1.136,2.541,2.54c0,1.403-1.138,2.541-2.541,2.541c-1.404,0-2.539-1.138-2.539-2.541
			C66.193,38.595,67.328,37.459,68.732,37.459z M86.189,82.857H33.808V46.67h52.381V82.857z M83.653,42.54
			c-1.405,0-2.542-1.138-2.542-2.541c0-1.404,1.137-2.54,2.542-2.54c1.401,0,2.536,1.136,2.536,2.54
			C86.189,41.402,85.055,42.54,83.653,42.54z"/>
		<path fill="#FFFFFF" d="M52.016,78.471v-6.682c0-0.842-1.168-1.525-2.617-1.525h-5.233c-1.445,0-2.617,0.684-2.617,1.525v6.682
			H52.016z"/>
		<path fill="#FFFFFF" d="M65.979,78.471v-9.906c0-0.842-1.175-1.526-2.62-1.526h-5.236c-1.444,0-2.615,0.685-2.615,1.526v9.906
			H65.979z"/>
		<path fill="#FFFFFF" d="M79.932,78.471V64.266c0-0.843-1.174-1.526-2.613-1.526h-5.234c-1.447,0-2.623,0.684-2.623,1.526v14.205
			H79.932z"/>
		<path fill="#FFFFFF" d="M72.881,50.872c-3.012,4.161-7.801,8.044-13.898,10.84c-5.733,2.627-11.692,3.864-17.038,3.823
			c6.655,1.629,15.322,0.71,23.528-3.054c4.682-2.146,8.573-4.941,11.494-8.003L72.881,50.872z"/>
	</g>
</g>
</svg>
