<?xml version="1.0" encoding="utf-8"?>
<!-- Generator: Adobe Illustrator 16.0.0, SVG Export Plug-In . SVG Version: 6.00 Build 0)  -->
<!DOCTYPE svg PUBLIC "-//W3C//DTD SVG 1.1//EN" "http://www.w3.org/Graphics/SVG/1.1/DTD/svg11.dtd">
<svg version="1.1" id="圖層_1" xmlns="http://www.w3.org/2000/svg" xmlns:xlink="http://www.w3.org/1999/xlink" x="0px" y="0px"
	 width="120px" height="120px" viewBox="0 0 120 120" enable-background="new 0 0 120 120" xml:space="preserve">
<g>
	<path fill="#FFFFFF" d="M90,52.241H49.968l39.912-9.216l-2.04-8.838c-0.55-2.461-2.988-4.011-5.451-3.463
		c0,0.001-0.001,0.001-0.003,0.001L33.522,41.987C31.463,42.468,30.006,44.3,30,46.415l0,0v38.34
		c-0.017,2.54,2.03,4.614,4.572,4.632c0.012,0,0.024,0,0.036,0h50.795c2.543-0.003,4.6-2.067,4.597-4.608c0-0.009,0-0.017,0-0.023
		V52.241z M77.153,35.513l7.901,5.16l-6.095,1.41l-7.901-5.16L77.153,35.513z M64.86,38.387l7.901,5.16l-6.097,1.374l-7.901-5.154
		L64.86,38.387z M52.86,41.158l7.902,5.161l-6.09,1.374l-7.902-5.161L52.86,41.158z M40.602,43.96l7.902,5.16l-6.096,1.404
		l-7.902-5.154L40.602,43.96z M85.397,84.761H34.596v-27.93h50.801v27.924V84.761z"/>
	<path fill="#FFFFFF" d="M64.62,69.395l-6.87-4.29c-1.398-0.876-2.544-0.24-2.544,1.41v8.945c0,1.651,1.146,2.287,2.544,1.411
		l6.87-4.285C66,71.698,66,70.271,64.62,69.395z"/>
</g>
</svg>
