<?xml version="1.0" encoding="utf-8"?>
<!-- Generator: Adobe Illustrator 16.0.0, SVG Export Plug-In . SVG Version: 6.00 Build 0)  -->
<!DOCTYPE svg PUBLIC "-//W3C//DTD SVG 1.1//EN" "http://www.w3.org/Graphics/SVG/1.1/DTD/svg11.dtd">
<svg version="1.1" id="圖層_3" xmlns="http://www.w3.org/2000/svg" xmlns:xlink="http://www.w3.org/1999/xlink" x="0px" y="0px"
	 width="120px" height="120px" viewBox="0 0 120 120" enable-background="new 0 0 120 120" xml:space="preserve">
<g>
	<path fill="#FFFFFF" d="M88.73,69.949H31.262c-0.692,0-1.262,0.596-1.262,1.324v2.471c0,0.729,0.57,1.318,1.262,1.318H88.73
		c0.699,0,1.27-0.59,1.27-1.318v-2.471C90,70.545,89.43,69.949,88.73,69.949z"/>
	<path fill="#FFFFFF" d="M33.169,82.846c0,1.039,0.811,1.887,1.807,1.887h6.434c0.996,0,1.806-0.848,1.806-1.887v-5.559H33.169
		V82.846z"/>
	<path fill="#FFFFFF" d="M76.783,82.846c0,1.039,0.814,1.887,1.807,1.887h6.433c0.991,0,1.809-0.848,1.809-1.887v-5.559H76.783
		V82.846z"/>
	<path fill="#FFFFFF" d="M88.951,59.405c0-4.054-3.305-7.369-7.339-7.369h-0.245v-4.659c0-1.41-0.234-2.771-0.669-4.022
		c-1.589-4.707-5.898-8.088-10.936-8.088H50.229c-0.899,0-1.777,0.108-2.618,0.314c-1.209,0.294-2.335,0.806-3.369,1.462
		c-0.526,0.048-0.989,0.408-1.298,0.955c-0.133,0.112-0.275,0.211-0.402,0.329c-1.453,1.352-2.583,3.075-3.246,5.029
		c-0.438,1.25-0.671,2.612-0.671,4.022v4.659h-0.232c-4.038,0-7.342,3.315-7.342,7.369v8.394h57.9V59.405z M41.808,47.965
		c0-2.253,0.77-4.328,2.046-5.955c0.162,0.066,0.329,0.113,0.506,0.113h30.606c0.349,0,0.671-0.145,0.947-0.383
		c1.407,1.666,2.271,3.842,2.271,6.225v3.897H41.808V47.965z M38.513,62.971c-1.847,0-3.349-1.564-3.349-3.498
		c0-1.931,1.502-3.494,3.349-3.494c1.851,0,3.352,1.563,3.352,3.494C41.865,61.406,40.364,62.971,38.513,62.971z M67.521,64.338
		H52.476c-3.183,0-5.919-2.59-6.967-6.186h28.982C73.438,61.748,70.711,64.338,67.521,64.338z M81.486,62.971
		c-1.859,0-3.361-1.564-3.361-3.498c0-1.931,1.502-3.494,3.361-3.494c1.853,0,3.346,1.563,3.346,3.494
		C84.832,61.406,83.339,62.971,81.486,62.971z"/>
</g>
</svg>
