<?xml version="1.0" encoding="utf-8"?>
<!-- Generator: Adobe Illustrator 16.0.0, SVG Export Plug-In . SVG Version: 6.00 Build 0)  -->
<!DOCTYPE svg PUBLIC "-//W3C//DTD SVG 1.1//EN" "http://www.w3.org/Graphics/SVG/1.1/DTD/svg11.dtd">
<svg version="1.1" xmlns="http://www.w3.org/2000/svg" xmlns:xlink="http://www.w3.org/1999/xlink" x="0px" y="0px" width="120px"
	 height="120px" viewBox="360.945 237.64 120 120" enable-background="new 360.945 237.64 120 120" xml:space="preserve">
<g id="圖層_1">
	<g>
		<polygon fill="#FFFFFF" points="417.739,288.111 424.14,288.11 424.14,296.187 430.467,294.338 420.948,310.578 411.429,294.333 
			417.749,296.187 		"/>
		<path fill="#FFFFFF" d="M449.045,270.974h-56.198c-1.052,0-1.902,0.852-1.902,1.904v49.524c0,1.055,0.85,1.905,1.902,1.905h56.198
			c1.05,0,1.9-0.851,1.9-1.905v-7.612v-4.034v-17.613v-3.352v-16.914C450.947,271.827,450.094,270.974,449.045,270.974z
			 M444.498,275.078c1.457,0,2.641,1.185,2.641,2.641c0,1.456-1.184,2.64-2.641,2.64s-2.64-1.184-2.64-2.64
			C441.858,276.263,443.041,275.078,444.498,275.078z M437.097,275.078c1.459,0,2.643,1.185,2.643,2.641
			c0,1.456-1.184,2.64-2.643,2.64c-1.457,0-2.639-1.184-2.639-2.64C434.459,276.263,435.638,275.078,437.097,275.078z
			 M429.752,275.078c1.459,0,2.643,1.185,2.643,2.641c0,1.456-1.184,2.64-2.643,2.64c-1.455,0-2.638-1.184-2.638-2.64
			C427.114,276.263,428.297,275.078,429.752,275.078z M447.138,293.144v17.614v4.031v5.709h-52.386V284.31h52.386v5.481V293.144
			L447.138,293.144z"/>
		<rect x="400.235" y="311.552" fill="#FFFFFF" width="41.427" height="5.419"/>
	</g>
</g>
<g id="圖層_2" display="none">
	<g display="inline">
		<path fill="#FFFFFF" d="M403.185,280.618h4.415c0.668,0,1.21-0.541,1.21-1.208v-9.713c0-0.665-0.542-1.201-1.21-1.201h-4.415
			c-0.666,0-1.211,0.537-1.211,1.201v9.713C401.974,280.077,402.519,280.618,403.185,280.618z"/>
		<path fill="#FFFFFF" d="M434.299,280.618h4.411c0.671,0,1.208-0.541,1.208-1.208v-9.713c0-0.665-0.537-1.201-1.208-1.201h-4.411
			c-0.667,0-1.208,0.537-1.208,1.201v9.713C433.091,280.077,433.632,280.618,434.299,280.618z"/>
		<path fill="#FFFFFF" d="M443.916,273.136h-1.555v6.273c0,2.015-1.637,3.653-3.651,3.653h-4.411c-2.01,0-3.655-1.639-3.655-3.653
			v-6.273h-19.389v6.273c0,2.015-1.646,3.653-3.654,3.653h-4.415c-2.012,0-3.651-1.639-3.651-3.653v-6.273h-1.555
			c-3.883,0-7.035,3.151-7.035,7.029V293.2v26.549c0,3.88,3.151,7.037,7.035,7.037h45.936c3.884,0,7.029-3.157,7.029-7.037V293.2
			v-13.035C450.945,276.287,447.8,273.136,443.916,273.136z M446.504,319.749c0,1.427-1.161,2.579-2.588,2.579H397.98
			c-1.43,0-2.583-1.152-2.583-2.579V293.2h51.106V319.749z"/>
		<rect x="399.265" y="297.96" fill="#FFFFFF" width="11.763" height="4.346"/>
		<rect x="414.641" y="297.96" fill="#FFFFFF" width="11.759" height="4.346"/>
		<rect x="430.015" y="297.96" fill="#FFFFFF" width="11.766" height="4.346"/>
		<rect x="399.265" y="305.388" fill="#FFFFFF" width="11.763" height="4.346"/>
		<rect x="414.641" y="305.388" fill="#FFFFFF" width="11.759" height="4.346"/>
		<rect x="430.015" y="305.388" fill="#FFFFFF" width="11.766" height="4.346"/>
		<rect x="399.265" y="312.805" fill="#FFFFFF" width="11.763" height="4.343"/>
		<rect x="414.641" y="312.805" fill="#FFFFFF" width="11.759" height="4.343"/>
		<rect x="430.015" y="312.805" fill="#FFFFFF" width="11.766" height="4.343"/>
	</g>
</g>
<g id="圖層_3" display="none">
	<g display="inline">
		<path fill="#FFFFFF" d="M449.042,269.242h-56.193c-1.053,0-1.903,0.852-1.903,1.903v49.525c0,1.054,0.85,1.904,1.903,1.904h11.851
			l2.14-2.144c-0.077-0.537-0.153-1.1-0.229-1.666h-11.859v-36.187h52.384v36.187h-7.225c-0.173,1.042-0.649,2.006-1.41,2.768
			l-1.042,1.042h11.583c1.05,0,1.903-0.851,1.903-1.904v-49.525C450.945,270.094,450.092,269.242,449.042,269.242z M429.677,278.446
			c-1.405,0-2.537-1.136-2.537-2.54c0-1.405,1.132-2.54,2.537-2.54c1.404,0,2.542,1.135,2.542,2.54
			C432.219,277.311,431.081,278.446,429.677,278.446z M437.139,278.446c-1.405,0-2.543-1.136-2.543-2.54
			c0-1.405,1.138-2.54,2.543-2.54c1.401,0,2.536,1.135,2.536,2.54C439.676,277.311,438.541,278.446,437.139,278.446z
			 M444.598,278.446c-1.406,0-2.542-1.136-2.542-2.54c0-1.405,1.136-2.54,2.542-2.54c1.401,0,2.537,1.135,2.537,2.54
			C447.135,277.311,446,278.446,444.598,278.446z"/>
		<path fill="#FFFFFF" d="M429.988,324.807c0.208-0.192,0.392-0.393,0.564-0.593l4.327-4.328c0.789-0.788,0.79-2.072,0-2.862
			c-0.79-0.792-2.074-0.792-2.862-0.003l-0.389,0.389c-0.073-0.176-0.158-0.345-0.255-0.509l2.206-2.208
			c0.796-0.795,0.796-2.076,0.006-2.866c-0.789-0.792-2.078-0.792-2.869,0l-1.289,1.289c-0.086-0.17-0.167-0.344-0.25-0.514
			l2.42-2.421c0.787-0.785,0.787-2.072-0.002-2.861c-0.79-0.79-2.076-0.79-2.864-0.005l-1.888,1.89
			c-0.156-0.115-0.32-0.214-0.483-0.302l6.633-6.632c0.791-0.792,0.791-2.076,0-2.867c-0.79-0.789-2.074-0.789-2.862,0l-10.498,10.5
			c-4.245,3.581-5.456,0.162-6.762-1.415c-2.235-2.696-4.569-3.053-5.429-2.193c-0.199,0.199-1.678,1.854-0.856,2.479
			c0.504,0.384,3.589,2.93,3.737,5.729c0.113,2.136,0.605,5.553,0.83,7.049l-4.859,4.861l9.629,9.625l5.138-5.137
			c1.883-0.388,3.762-1.314,5.087-2.526C427.429,327.185,428.707,325.998,429.988,324.807z"/>
		<path fill-rule="evenodd" clip-rule="evenodd" fill="#FFFFFF" d="M435.73,293.906c-1.838-1.235-4.006-1.608-6.021-1.214
			c-2.015,0.396-3.879,1.561-5.115,3.4c-1.235,1.837-1.609,4.005-1.216,6.019c0.051,0.251,0.111,0.5,0.184,0.744
			c0.986-1.28,2.029-2.506,3.114-3.633c0.135-0.456,0.339-0.9,0.618-1.316c0.734-1.092,1.843-1.785,3.043-2.019
			c1.196-0.236,2.484-0.013,3.578,0.722c1.092,0.735,1.784,1.842,2.019,3.042c0.234,1.197,0.015,2.484-0.721,3.578
			c-0.298,0.443-0.657,0.819-1.057,1.128c-0.65,1.456-1.394,2.858-2.227,4.207c0.29-0.024,0.58-0.065,0.868-0.122
			c2.016-0.395,3.881-1.56,5.116-3.399c1.235-1.838,1.609-4.005,1.214-6.021C438.732,297.008,437.568,295.143,435.73,293.906
			L435.73,293.906z"/>
		<path fill-rule="evenodd" clip-rule="evenodd" fill="#FFFFFF" d="M439.256,288.66c-3.288-2.209-7.16-2.876-10.764-2.171
			c-3.604,0.708-6.937,2.789-9.146,6.077c-2.209,3.286-2.877,7.16-2.169,10.761c0.123,0.63,0.288,1.249,0.495,1.857l3.269-0.536
			c-0.251-0.63-0.44-1.282-0.571-1.946c-0.547-2.785-0.031-5.78,1.677-8.321c1.709-2.542,4.287-4.151,7.071-4.698
			c2.785-0.547,5.779-0.031,8.321,1.677c2.541,1.708,4.151,4.286,4.698,7.071c0.546,2.785,0.03,5.779-1.677,8.321
			c-1.709,2.543-4.287,4.153-7.073,4.698c-0.082,0.016-0.164,0.031-0.245,0.047l0.597,0.635l-0.674,1.674
			c-0.014,0.031-0.027,0.065-0.04,0.097l0.739,0.786c0.083-0.013,0.168-0.029,0.251-0.045c3.603-0.706,6.938-2.787,9.146-6.075
			c2.21-3.288,2.875-7.161,2.17-10.764C444.625,294.203,442.543,290.868,439.256,288.66L439.256,288.66z"/>
	</g>
</g>
<g id="圖層_4" display="none">
	<g display="inline">
		<path fill="#FFFFFF" d="M441.144,295.927v9.753v9.853v10.118h9.801v-29.724H441.144z M446.052,303.417
			c-1.183,0-2.139-0.959-2.139-2.139c0-1.182,0.956-2.14,2.139-2.14c1.181,0,2.14,0.958,2.14,2.14
			C448.191,302.458,447.232,303.417,446.052,303.417z"/>
		<path fill="#FFFFFF" d="M411.602,290.135c0,5.195,4.226,9.421,9.42,9.421c5.192,0,9.417-4.226,9.417-9.421
			c0-5.194-4.225-9.419-9.417-9.419C415.827,280.716,411.602,284.941,411.602,290.135z M421.022,282.805
			c4.041,0,7.329,3.288,7.329,7.33c0,4.042-3.288,7.331-7.329,7.331c-4.044,0-7.332-3.288-7.332-7.331
			C413.69,286.093,416.978,282.805,421.022,282.805z"/>
		<path fill="#FFFFFF" d="M418.778,294.575c0.526,0.333,1.147,0.542,1.846,0.625v0.22c0,0.329,0.146,0.521,0.273,0.626
			c0.153,0.127,0.336,0.193,0.528,0.193c0.186,0,0.365-0.062,0.517-0.176c0.198-0.143,0.312-0.377,0.312-0.643v-0.246
			c0.681-0.121,1.206-0.388,1.568-0.791c0.441-0.484,0.686-1.022,0.723-1.584c0.027-0.293,0.012-0.6-0.049-0.923
			c-0.056-0.336-0.184-0.667-0.39-0.989c-0.207-0.308-0.495-0.578-0.845-0.795c-0.273-0.176-0.604-0.313-1.008-0.418v-2.871
			c0.141,0.101,0.265,0.217,0.372,0.347c0.101,0.124,0.186,0.271,0.234,0.42c0.057,0.181,0.091,0.352,0.108,0.53
			c0.053,0.429,0.393,0.714,0.786,0.655c0.346-0.041,0.607-0.3,0.696-0.795c-0.021-0.815-0.286-1.481-0.792-1.979
			c-0.382-0.377-0.854-0.637-1.405-0.776v-0.352c0-0.237-0.096-0.453-0.297-0.631c-0.313-0.25-0.726-0.276-1.092,0.034
			c-0.11,0.106-0.243,0.297-0.243,0.597v0.268c-0.303,0.042-0.59,0.115-0.87,0.218c-0.442,0.171-0.798,0.388-1.083,0.664
			c-0.292,0.279-0.516,0.612-0.675,0.999c-0.152,0.393-0.208,0.806-0.167,1.234c0.089,0.772,0.417,1.413,0.985,1.906
			c0.476,0.396,1.083,0.657,1.811,0.771l0.002,2.824c-0.435-0.067-0.78-0.196-1.031-0.386c-0.335-0.254-0.542-0.556-0.619-0.874
			c-0.05-0.379-0.351-0.63-0.741-0.641c-0.301-0.01-0.515,0.137-0.596,0.234c-0.083,0.095-0.206,0.303-0.136,0.593
			C417.658,293.492,418.087,294.135,418.778,294.575z M419.356,288.138c-0.021-0.422,0.115-0.782,0.413-1.097
			c0.207-0.216,0.492-0.365,0.853-0.445v2.806c-0.149-0.04-0.277-0.087-0.384-0.139c-0.245-0.125-0.425-0.247-0.561-0.38
			c-0.103-0.099-0.182-0.214-0.223-0.317C419.403,288.411,419.37,288.271,419.356,288.138z M423.071,292.748
			c0,0.013-0.002,0.083-0.057,0.245c-0.03,0.103-0.093,0.211-0.166,0.31c-0.089,0.105-0.228,0.213-0.397,0.305
			c-0.057,0.03-0.12,0.057-0.197,0.081v-2.47c0.223,0.094,0.396,0.211,0.518,0.351c0.213,0.248,0.312,0.639,0.3,1.165
			C423.071,292.74,423.071,292.745,423.071,292.748z"/>
		<path fill="#FFFFFF" d="M402.915,292.6c3.64,0,6.602-2.961,6.602-6.601c0-3.641-2.962-6.602-6.602-6.602s-6.601,2.961-6.601,6.602
			C396.314,289.638,399.276,292.6,402.915,292.6z M402.915,281.485c2.489,0,4.514,2.025,4.514,4.514
			c0,2.488-2.025,4.512-4.514,4.512c-2.488,0-4.51-2.024-4.51-4.512C398.405,283.51,400.427,281.485,402.915,281.485z"/>
		<path fill="#FFFFFF" d="M413.405,279.969c2.85,0,5.169-2.319,5.169-5.17c0-2.85-2.319-5.169-5.169-5.169s-5.169,2.319-5.169,5.169
			C408.236,277.65,410.555,279.969,413.405,279.969z M413.405,271.719c1.698,0,3.081,1.381,3.081,3.08
			c0,1.699-1.382,3.081-3.081,3.081s-3.081-1.382-3.081-3.081C410.324,273.1,411.707,271.719,413.405,271.719z"/>
		<path fill="#FFFFFF" d="M418.209,302.675l-1.84-1.142c-1.326-0.805-2.938-0.966-4.419-0.438l-0.858,0.358l4.303,2.37
			C416.301,303.444,417.248,303.056,418.209,302.675z"/>
		<path fill="#FFFFFF" d="M401.37,301.651l-1.015,0.473l9.233,4.256c0.618-0.284,1.645-0.752,2.891-1.301l-5.998-3.305
			C404.913,300.942,402.997,300.888,401.37,301.651z"/>
		<path fill="#FFFFFF" d="M437.004,305.5c-0.055-0.035-5.527-3.34-9.332-3.145c-3.226,0.169-13.58,4.693-17.444,6.491
			c-0.286,0.209-1.305,1.001-2.065,2.093c-0.353,0.506-0.142,0.995-0.037,1.184c0.194,0.342,0.596,0.703,1.193,0.651l16.403-1.164
			c0.684-0.051,1.291,0.472,1.342,1.161c0.049,0.69-0.471,1.29-1.16,1.339l-16.406,1.165c-1.493,0.101-2.825-0.631-3.552-1.916
			c-0.701-1.232-0.637-2.71,0.161-3.854c0.376-0.541,0.798-1.021,1.194-1.422l-10.352-4.771c-0.002-0.002-0.006-0.002-0.008-0.004
			l-0.864-0.397c-1.7-0.679-3.647-0.406-5.132,0.658l19.417,15.151c2.372,1.973,5.507,2.59,8.416,1.679l18.239-4.825
			c0.104-0.027,0.212-0.041,0.32-0.041h1.301v-9.853h-0.982C437.426,305.68,437.201,305.619,437.004,305.5z"/>
		<circle fill="#FFFFFF" cx="413.754" cy="274.574" r="3.702"/>
		<ellipse fill="#FFFFFF" cx="403.012" cy="286.399" rx="5.029" ry="5.683"/>
	</g>
</g>
<g id="圖層_5" display="none">
	<g display="inline">
		<path fill="#FFFFFF" d="M449.041,270.974h-56.192c-1.052,0-1.903,0.853-1.903,1.906v49.524c0,1.053,0.852,1.902,1.903,1.902
			h56.192c1.052,0,1.904-0.85,1.904-1.902V272.88C450.945,271.827,450.093,270.974,449.041,270.974z M437.137,275.1
			c1.401,0,2.538,1.135,2.538,2.54s-1.137,2.541-2.538,2.541c-1.404,0-2.542-1.137-2.542-2.541S435.733,275.1,437.137,275.1z
			 M429.677,275.1c1.403,0,2.541,1.135,2.541,2.54s-1.138,2.541-2.541,2.541c-1.404,0-2.54-1.137-2.54-2.541
			S428.273,275.1,429.677,275.1z M447.135,320.498h-52.381v-36.187h52.381V320.498z M444.598,280.181
			c-1.405,0-2.542-1.137-2.542-2.541s1.137-2.54,2.542-2.54c1.401,0,2.536,1.135,2.536,2.54S446,280.181,444.598,280.181z"/>
		<rect x="400.233" y="290.128" fill="#FFFFFF" width="41.424" height="9.127"/>
		<g>
			<rect x="400.233" y="301.714" fill="#FFFFFF" width="11.844" height="1.578"/>
			<rect x="400.233" y="305.751" fill="#FFFFFF" width="11.844" height="1.578"/>
			<rect x="400.233" y="309.789" fill="#FFFFFF" width="11.844" height="1.578"/>
			<rect x="400.233" y="313.826" fill="#FFFFFF" width="11.844" height="1.578"/>
		</g>
		<g>
			<rect x="415.11" y="301.714" fill="#FFFFFF" width="11.846" height="1.578"/>
			<rect x="415.11" y="305.751" fill="#FFFFFF" width="11.846" height="1.578"/>
			<rect x="415.11" y="309.789" fill="#FFFFFF" width="11.846" height="1.578"/>
			<rect x="415.11" y="313.826" fill="#FFFFFF" width="11.846" height="1.578"/>
		</g>
		<g>
			<rect x="429.989" y="301.714" fill="#FFFFFF" width="11.844" height="1.578"/>
			<rect x="429.989" y="302.816" fill="#FFFFFF" width="11.844" height="11.311"/>
			<rect x="429.989" y="313.826" fill="#FFFFFF" width="11.844" height="1.578"/>
		</g>
		<rect x="413.318" y="274.449" fill="#FFFFFF" width="35.062" height="8.551"/>
	</g>
</g>
<g id="圖層_6" display="none">
	<g display="inline">
		<path fill="#FFFFFF" d="M412.315,284.512c0,0.719-0.581,1.3-1.3,1.3h-5.039c-0.719,0-1.3-0.582-1.3-1.3v-4.063
			c0-0.719,0.582-1.3,1.3-1.3h5.039c0.719,0,1.3,0.582,1.3,1.3V284.512z"/>
		<path fill="#FFFFFF" d="M412.315,293.126c0,0.718-0.581,1.3-1.3,1.3h-5.039c-0.719,0-1.3-0.582-1.3-1.3v-4.063
			c0-0.719,0.582-1.3,1.3-1.3h5.039c0.719,0,1.3,0.582,1.3,1.3V293.126z"/>
		<path fill="#FFFFFF" d="M410.593,299.591c-0.418-0.891-0.42-1.889-0.005-2.803c0.067-0.147,0.164-0.277,0.25-0.411h-4.861
			c-0.719,0-1.3,0.582-1.3,1.3v4.063c0,0.719,0.582,1.301,1.3,1.301h5.039c0.273,0,0.513-0.104,0.721-0.249
			C411.221,300.965,410.635,299.68,410.593,299.591z"/>
		<path fill="#FFFFFF" d="M415.619,293.726c0.696,0,1.432,0.18,2.156,0.554v-6.517h-1.884c-0.719,0-1.3,0.582-1.3,1.3v4.063
			c0,0.256,0.094,0.482,0.224,0.686C415.066,293.761,415.335,293.726,415.619,293.726z"/>
		<path fill="#FFFFFF" d="M415.891,285.812h1.884v-0.159c0-2.561,1.959-4.651,4.454-4.913v-0.292c0-0.719-0.582-1.3-1.3-1.3h-5.039
			c-0.719,0-1.3,0.582-1.3,1.3v4.063C414.591,285.231,415.172,285.812,415.891,285.812z"/>
		<path fill="#FFFFFF" d="M420.393,320.55l-2.603-2.561c-0.171-0.165-0.333-0.348-0.487-0.546c0.207,0.368,0.334,0.785,0.334,1.237
			c0,1.406-1.139,2.552-2.551,2.552c-1.399,0-2.545-1.146-2.545-2.552c0-1.407,1.146-2.547,2.545-2.547
			c0.797,0,1.5,0.37,1.967,0.941c-0.083-0.127-0.171-0.241-0.248-0.378c-0.93-1.133-1.697-2.248-2.328-3.345H402.58v-37.067h25.017
			v8.341c0.071,0.332,0.109,0.674,0.109,1.027v2.839c0.137-0.012,0.274-0.017,0.411-0.017c0.49,0,0.961,0.079,1.409,0.21v-16.648
			c0-2.428-1.973-4.398-4.399-4.398h-20.075c-2.432,0-4.401,1.971-4.401,4.398v48.034c0,2.43,1.969,4.403,4.401,4.403h15.341V320.55
			z M411.307,270.845h7.563c0.212,0,0.393,0.261,0.393,0.577c0,0.328-0.18,0.577-0.393,0.577h-7.563
			c-0.217,0-0.386-0.249-0.386-0.577C410.921,271.105,411.09,270.845,411.307,270.845z"/>
		<path fill="#FFFFFF" d="M441.234,306.746c0.011-0.325,0-0.653-0.027-0.973v-7.032c0-1.305-1.06-2.369-2.359-2.369
			c-1.303,0-2.369,1.064-2.369,2.369v0.541c-0.206-0.076-0.414-0.142-0.63-0.203v-3.558c0-1.303-1.062-2.369-2.367-2.369
			s-2.364,1.066-2.364,2.369v2.039c-0.213-0.074-0.422-0.147-0.635-0.221v-3.898c0-1.306-1.059-2.364-2.364-2.364
			s-2.367,1.058-2.367,2.364v3.02c-0.221,0.038-0.434,0.084-0.645,0.155v-10.961c0-1.3-1.062-2.364-2.364-2.364
			c-1.307,0-2.366,1.064-2.366,2.364v19.535c-0.518-1.123-0.531-2.547-0.759-3.602c-0.871-3.997-3.088-5.627-4.447-5.195
			c-0.315,0.091-2.732,1.008-2.219,2.105c0.315,0.675,1.955,4.475,2.146,8.601c0.137,2.946,1.989,5.879,3.875,8.137
			c0.167,0.33,0.371,0.64,0.643,0.901l3.379,3.324v8.18h15.905v-8.393c1.231-1.88,2.016-4.193,2.11-6.285
			c0.073-2.042,0.147-4.079,0.221-6.118c0.005-0.022-0.003-0.038,0-0.061C441.229,306.776,441.234,306.76,441.234,306.746z"/>
	</g>
</g>
<g id="圖層_7" display="none">
	<g display="inline">
		<path fill="#FFFFFF" d="M432.036,281.753c-0.177-0.261-0.419-0.488-0.718-0.674c-0.235-0.154-0.524-0.271-0.876-0.361v-2.531
			c0.138,0.097,0.26,0.207,0.363,0.332c0.089,0.107,0.16,0.233,0.207,0.374c0.048,0.145,0.078,0.292,0.093,0.449
			c0.041,0.357,0.343,0.571,0.648,0.544c0.287-0.035,0.497-0.244,0.574-0.658c-0.021-0.692-0.244-1.257-0.672-1.679
			c-0.329-0.326-0.735-0.547-1.214-0.666v-0.322c0-0.196-0.08-0.376-0.243-0.521c-0.271-0.21-0.609-0.226-0.904,0.027
			c-0.135,0.129-0.204,0.299-0.204,0.494v0.252c-0.266,0.036-0.515,0.098-0.758,0.189c-0.378,0.144-0.682,0.33-0.919,0.563
			c-0.245,0.231-0.439,0.514-0.574,0.846c-0.133,0.33-0.182,0.679-0.146,1.049c0.073,0.655,0.352,1.2,0.836,1.62
			c0.405,0.34,0.93,0.561,1.561,0.659l0.002,2.473c-0.391-0.057-0.7-0.17-0.924-0.34c-0.292-0.222-0.472-0.486-0.543-0.761
			c-0.037-0.314-0.282-0.524-0.61-0.534c-0.252-0.019-0.427,0.115-0.493,0.194s-0.165,0.251-0.105,0.483
			c0.132,0.707,0.496,1.254,1.081,1.628c0.455,0.285,0.989,0.464,1.595,0.535v0.211c0,0.211,0.081,0.395,0.229,0.52
			c0.128,0.103,0.278,0.159,0.436,0.159c0.152,0,0.303-0.053,0.43-0.149c0.163-0.118,0.256-0.312,0.256-0.53v-0.231
			c0.584-0.102,1.038-0.329,1.354-0.677c0.372-0.411,0.578-0.867,0.611-1.343c0.024-0.255,0.01-0.515-0.042-0.791
			C432.317,282.301,432.207,282.025,432.036,281.753z M430.442,284.176v-2.189c0.211,0.085,0.374,0.192,0.488,0.321
			c0.185,0.216,0.273,0.56,0.264,1.019c0,0.003,0,0.007,0,0.009c0,0.012-0.001,0.077-0.05,0.22c-0.026,0.09-0.081,0.186-0.146,0.272
			c-0.057,0.065-0.16,0.164-0.354,0.27C430.589,284.128,430.52,284.155,430.442,284.176z M427.957,279.382
			c-0.019-0.373,0.102-0.687,0.361-0.959c0.186-0.195,0.443-0.329,0.772-0.397v2.471c-0.144-0.036-0.263-0.081-0.361-0.13
			c-0.218-0.109-0.374-0.214-0.492-0.331c-0.091-0.086-0.158-0.185-0.197-0.285C427.996,279.625,427.969,279.504,427.957,279.382z"
			/>
		<path fill="#FFFFFF" d="M440.527,267.64h-39.164c-3.65,0-6.61,2.959-6.61,6.61v46.778c0,3.651,2.96,6.611,6.61,6.611h39.164
			c3.65,0,6.61-2.96,6.61-6.611V274.25C447.137,270.6,444.177,267.64,440.527,267.64z M403.121,274.159h33.975v13.871h-33.975
			V274.159z M405.628,317.936c-1.775,0-3.213-1.439-3.213-3.214s1.438-3.213,3.213-3.213c1.773,0,3.213,1.438,3.213,3.213
			S407.401,317.936,405.628,317.936z M405.628,308.421c-1.775,0-3.213-1.439-3.213-3.213c0-1.774,1.438-3.213,3.213-3.213
			c1.773,0,3.213,1.438,3.213,3.213C408.841,306.982,407.401,308.421,405.628,308.421z M405.628,298.908
			c-1.775,0-3.213-1.438-3.213-3.214c0-1.774,1.438-3.212,3.213-3.212c1.773,0,3.213,1.438,3.213,3.212
			C408.841,297.47,407.401,298.908,405.628,298.908z M414.882,317.936c-1.775,0-3.213-1.439-3.213-3.214s1.438-3.213,3.213-3.213
			c1.774,0,3.213,1.438,3.213,3.213S416.656,317.936,414.882,317.936z M414.882,308.421c-1.775,0-3.213-1.439-3.213-3.213
			c0-1.774,1.438-3.213,3.213-3.213c1.774,0,3.213,1.438,3.213,3.213C418.095,306.982,416.656,308.421,414.882,308.421z
			 M414.882,298.908c-1.775,0-3.213-1.438-3.213-3.214c0-1.774,1.438-3.212,3.213-3.212c1.774,0,3.213,1.438,3.213,3.212
			C418.095,297.47,416.656,298.908,414.882,298.908z M424.136,317.936c-1.773,0-3.213-1.439-3.213-3.214s1.439-3.213,3.213-3.213
			c1.775,0,3.214,1.438,3.214,3.213S425.912,317.936,424.136,317.936z M424.136,308.421c-1.773,0-3.213-1.439-3.213-3.213
			c0-1.774,1.439-3.213,3.213-3.213c1.775,0,3.214,1.438,3.214,3.213C427.35,306.982,425.912,308.421,424.136,308.421z
			 M424.136,298.908c-1.773,0-3.213-1.438-3.213-3.214c0-1.774,1.439-3.212,3.213-3.212c1.775,0,3.214,1.438,3.214,3.212
			C427.35,297.47,425.912,298.908,424.136,298.908z M437.802,317.936h-5.753v-6.572h5.753V317.936z M437.802,307.113h-5.753v-14.631
			h5.753V307.113z"/>
		<circle fill="#FFFFFF" cx="420.588" cy="281.535" r="2.724"/>
		<circle fill="#FFFFFF" cx="411.838" cy="281.535" r="2.724"/>
		<path fill="#FFFFFF" d="M403.312,272.942c0,1.798-1.458,3.257-3.257,3.257h-2.046c-1.798,0-3.256-1.458-3.256-3.257v-2.045
			c0-1.798,1.458-3.257,3.256-3.257h2.046c1.798,0,3.257,1.458,3.257,3.257V272.942z"/>
		<path fill="#FFFFFF" d="M447.137,272.942c0,1.798-1.458,3.257-3.256,3.257h-2.047c-1.798,0-3.256-1.458-3.256-3.257v-2.045
			c0-1.798,1.458-3.257,3.256-3.257h2.047c1.798,0,3.256,1.458,3.256,3.257V272.942z"/>
		<path fill="#FFFFFF" d="M403.312,324.383c0,1.798-1.458,3.257-3.257,3.257h-2.046c-1.798,0-3.256-1.459-3.256-3.257v-2.045
			c0-1.799,1.458-3.258,3.256-3.258h2.046c1.798,0,3.257,1.459,3.257,3.258V324.383z"/>
		<path fill="#FFFFFF" d="M447.137,324.383c0,1.798-1.458,3.257-3.256,3.257h-2.047c-1.798,0-3.256-1.459-3.256-3.257v-2.045
			c0-1.799,1.458-3.258,3.256-3.258h2.047c1.798,0,3.256,1.459,3.256,3.258V324.383z"/>
	</g>
</g>
<g id="圖層_8" display="none">
	<g display="inline">
		<path fill="#FFFFFF" d="M449.039,270.974h-56.19c-1.053,0-1.903,0.852-1.903,1.906v49.523c0,1.052,0.85,1.903,1.903,1.903h56.19
			c1.056,0,1.906-0.852,1.906-1.903V272.88C450.945,271.825,450.094,270.974,449.039,270.974z M447.135,318.728h-39.532
			c-0.456,1.131-1.558,1.933-2.853,1.933c-1.289,0-2.392-0.802-2.847-1.933h-7.15v-2.296h7.15c0.455-1.128,1.558-1.927,2.847-1.927
			c1.294,0,2.397,0.799,2.853,1.927h39.532V318.728z M447.135,310.97h-52.381v-36.187h52.381V310.97z"/>
		<path fill="#FFFFFF" d="M439.089,292.533c0.96,0.556,0.96,1.463,0,2.019l-14.245,8.229c-0.963,0.556-1.747,0.102-1.747-1.009
			v-16.447c0-1.111,0.787-1.565,1.747-1.01L439.089,292.533z"/>
		<path fill="#FFFFFF" d="M429.986,292.533c0.96,0.556,0.96,1.463,0,2.019l-14.245,8.229c-0.963,0.556-1.747,0.102-1.747-1.009
			v-16.447c0-1.111,0.787-1.565,1.747-1.01L429.986,292.533z"/>
		<path fill="#FFFFFF" d="M418.821,292.533c0.96,0.556,0.96,1.463,0,2.019l-14.245,8.229c-0.963,0.556-1.747,0.102-1.747-1.009
			v-16.447c0-1.111,0.787-1.565,1.747-1.01L418.821,292.533z"/>
	</g>
</g>
</svg>
