<?xml version="1.0" encoding="utf-8"?>
<!-- Generator: Adobe Illustrator 16.0.0, SVG Export Plug-In . SVG Version: 6.00 Build 0)  -->
<!DOCTYPE svg PUBLIC "-//W3C//DTD SVG 1.1//EN" "http://www.w3.org/Graphics/SVG/1.1/DTD/svg11.dtd">
<svg version="1.1" id="圖層_4" xmlns="http://www.w3.org/2000/svg" xmlns:xlink="http://www.w3.org/1999/xlink" x="0px" y="0px"
	 width="120px" height="120px" viewBox="0 0 120 120" enable-background="new 0 0 120 120" xml:space="preserve">
<g>
	<path fill="#FFFFFF" d="M89.413,51.579l-17.631-8.575v-11.13c0-1.585-1.29-2.874-2.876-2.874H44.999
		c-1.585,0-2.875,1.289-2.875,2.874v22.909H31.875c-1.585,0-2.875,1.289-2.875,2.874v30.469C29,89.711,30.29,91,31.875,91h56.25
		C89.71,91,91,89.711,91,88.126V54.142C91,53.062,90.399,52.084,89.413,51.579z M86.189,55.355v30.833H57.251V66.361l13.058-6.955
		c0.896-0.378,1.474-1.248,1.474-2.217v-8.841L86.189,55.355z M54.844,54.783h-7.907v-20.97H66.97v21.936l-9.719,5.174v-3.733
		C57.251,55.863,56.171,54.783,54.844,54.783z M52.438,59.595v26.594H33.812V59.595H52.438z"/>
	<polygon fill-rule="evenodd" clip-rule="evenodd" fill="#FFFFFF" points="62.529,38.164 51.88,38.164 51.88,48.825 62.529,48.825 
		62.529,38.164 	"/>
	<polygon fill-rule="evenodd" clip-rule="evenodd" fill="#FFFFFF" points="48.783,63.697 38.134,63.697 38.134,74.358 
		48.783,74.358 48.783,63.697 	"/>
	<polygon fill-rule="evenodd" clip-rule="evenodd" fill="#FFFFFF" points="82.117,72.374 71.467,72.374 71.467,83.035 
		82.117,83.035 82.117,72.374 	"/>
</g>
</svg>
