<?xml version="1.0" encoding="utf-8"?>
<!-- Generator: Adobe Illustrator 16.0.0, SVG Export Plug-In . SVG Version: 6.00 Build 0)  -->
<!DOCTYPE svg PUBLIC "-//W3C//DTD SVG 1.1//EN" "http://www.w3.org/Graphics/SVG/1.1/DTD/svg11.dtd">
<svg version="1.1" id="圖層_7" xmlns="http://www.w3.org/2000/svg" xmlns:xlink="http://www.w3.org/1999/xlink" x="0px" y="0px"
	 width="120px" height="120px" viewBox="0 0 120 120" enable-background="new 0 0 120 120" xml:space="preserve">
<g>
	<path fill="#FFFFFF" d="M96.343,41.008l-1.479-1.477c-1.015-1.144-2.967-1.302-4.137-0.317L79.758,50.179V33.26
		c0-2.239-1.82-4.06-4.059-4.06H38.753c-2.239,0-4.06,1.821-4.06,4.06v53.48c0,2.238,1.821,4.06,4.06,4.06h36.946
		c2.238,0,4.059-1.821,4.059-4.06V61.984l16.56-16.558l0.496-0.028v-0.534C97.626,43.655,97.43,41.973,96.343,41.008z
		 M61.247,74.592l0.42-1.414l31.04-31.039l0.994,0.994L62.662,74.172L61.247,74.592z M38.183,33.26c0-0.314,0.256-0.57,0.57-0.57
		h36.946c0.314,0,0.57,0.256,0.57,0.57v20.409l-17.392,17.39c-0.189,0.191-0.345,0.443-0.433,0.711l-1.468,4.876
		c-0.175,0.609-0.002,1.289,0.437,1.728c0.332,0.336,0.768,0.521,1.229,0.521c0.123,0,0.342,0,0.561-0.107l4.782-1.381
		c0.308-0.076,0.585-0.231,0.798-0.447L76.27,65.475V86.74c0,0.313-0.256,0.569-0.57,0.569H38.753c-0.314,0-0.57-0.256-0.57-0.569
		V33.26z"/>
	<path fill="#FFFFFF" d="M50.965,77.174l1.844-1.844c0.568-0.57,0.568-1.462,0-2.03c-0.555-0.555-1.476-0.555-2.03,0l-1.843,1.843
		l-1.701-1.701c-0.555-0.556-1.477-0.555-2.03,0c-0.277,0.277-0.43,0.639-0.43,1.016c0,0.378,0.153,0.737,0.432,1.016l1.708,1.692
		l-1.804,1.804c-0.277,0.277-0.43,0.639-0.43,1.016c0,0.378,0.153,0.737,0.43,1.014c0.278,0.277,0.638,0.431,1.015,0.431
		s0.737-0.153,1.015-0.431l1.812-1.812l1.686,1.671c0.277,0.277,0.638,0.43,1.015,0.43c0.331,0,0.672-0.119,1.015-0.383
		c0.277-0.277,0.43-0.639,0.43-1.016c0-0.378-0.153-0.737-0.43-1.014L50.965,77.174z"/>
	<g>
		<path fill="#FFFFFF" d="M69.981,44.24H44.848c-0.797,0-1.445,0.648-1.445,1.444c0,0.797,0.648,1.445,1.445,1.445h25.133
			c0.797,0,1.445-0.648,1.445-1.445C71.427,44.888,70.778,44.24,69.981,44.24z"/>
		<path fill="#FFFFFF" d="M69.981,49.909H44.848c-0.797,0-1.445,0.648-1.445,1.445c0,0.796,0.648,1.444,1.445,1.444h25.133
			c0.797,0,1.445-0.648,1.445-1.444C71.427,50.558,70.778,49.909,69.981,49.909z"/>
		<path fill="#FFFFFF" d="M94.855,49.914l-6.188-6.19c-0.557-0.554-1.476-0.554-2.03,0c-0.277,0.277-0.43,0.638-0.43,1.015
			s0.152,0.738,0.43,1.015l5.126,5.127l-8.149,8.15c-0.569,0.569-0.569,1.46-0.001,2.028c0.276,0.277,0.637,0.431,1.016,0.431
			c0.444,0,0.812-0.132,1.062-0.382l9.165-9.166c0.277-0.278,0.431-0.638,0.431-1.015S95.133,50.192,94.855,49.914z"/>
		<path fill="#FFFFFF" d="M69.981,38.807H44.848c-0.797,0-1.445,0.648-1.445,1.445c0,0.796,0.648,1.444,1.445,1.444h25.133
			c0.797,0,1.445-0.648,1.445-1.444C71.427,39.455,70.778,38.807,69.981,38.807z"/>
		<path fill="#FFFFFF" d="M69.981,55.342H44.848c-0.797,0-1.445,0.648-1.445,1.445s0.648,1.445,1.445,1.445h25.133
			c0.797,0,1.445-0.648,1.445-1.445S70.778,55.342,69.981,55.342z"/>
		<path fill="#FFFFFF" d="M56.328,61.437h-11.48c-0.797,0-1.445,0.648-1.445,1.445s0.648,1.444,1.445,1.444h11.527
			c0.784,0,1.398-0.635,1.398-1.444C57.773,62.085,57.125,61.437,56.328,61.437z"/>
	</g>
</g>
</svg>
