<?xml version="1.0" encoding="utf-8"?>
<!-- Generator: Adobe Illustrator 16.0.0, SVG Export Plug-In . SVG Version: 6.00 Build 0)  -->
<!DOCTYPE svg PUBLIC "-//W3C//DTD SVG 1.1//EN" "http://www.w3.org/Graphics/SVG/1.1/DTD/svg11.dtd">
<svg version="1.1" id="圖層_5" xmlns="http://www.w3.org/2000/svg" xmlns:xlink="http://www.w3.org/1999/xlink" x="0px" y="0px"
	 width="120px" height="120px" viewBox="0 0 120 120" enable-background="new 0 0 120 120" xml:space="preserve">
<g>
	<path fill="#FFFFFF" d="M62.275,30.501c-8.573,0-15.522,6.946-15.522,15.52c0,8.575,15.522,23.688,15.522,23.688
		s15.52-15.113,15.52-23.688C77.795,37.447,70.85,30.501,62.275,30.501z M62.275,54.189c-4.51,0-8.17-3.656-8.17-8.169
		s3.66-8.168,8.17-8.168c4.513,0,8.17,3.655,8.17,8.168S66.788,54.189,62.275,54.189z"/>
	<g>
		<path fill="#FFFFFF" d="M78.564,89.499c-0.299,0-0.6-0.078-0.873-0.235l-10.445-6.08L53.62,88.655
			c-0.589,0.238-1.262,0.132-1.754-0.271l-8.717-7.171l-10.793,4.084c-0.87,0.325-1.835-0.082-2.208-0.93
			c-0.372-0.848-0.014-1.838,0.814-2.255l23.118-11.595c0.498-0.249,1.087-0.245,1.58,0.012l6.416,3.334l14.448-5.306
			c0.449-0.163,0.944-0.136,1.372,0.074l11.138,5.514c0.474,0.233,0.814,0.669,0.929,1.184c0.113,0.516-0.015,1.055-0.344,1.466
			L79.921,88.85C79.582,89.271,79.077,89.499,78.564,89.499L78.564,89.499z M67.385,79.512c0.306,0,0.607,0.078,0.877,0.235
			l9.886,5.755l7.398-9.2l-8.526-4.218l-14.468,5.311c-0.46,0.168-0.968,0.138-1.401-0.09l-6.308-3.278l-9.289,4.66l7.727,6.355
			l13.459-5.404C66.947,79.553,67.167,79.512,67.385,79.512L67.385,79.512z"/>
	</g>
	<g>
		<path fill="#FFFFFF" d="M67.385,82.991c-0.406,0-0.817-0.143-1.146-0.436c-0.722-0.634-0.792-1.733-0.156-2.454l9.734-11.06
			c0.635-0.722,1.735-0.792,2.455-0.156c0.723,0.636,0.791,1.735,0.155,2.456l-9.734,11.06
			C68.349,82.791,67.869,82.991,67.385,82.991L67.385,82.991z"/>
	</g>
	<g>
		<path fill="#FFFFFF" d="M52.696,88.047c-0.408,0-0.819-0.139-1.149-0.421c-0.721-0.608-0.792-1.668-0.158-2.359l9.735-10.646
			c0.635-0.693,1.735-0.762,2.455-0.149c0.722,0.609,0.789,1.668,0.156,2.362l-9.733,10.646
			C53.658,87.854,53.177,88.047,52.696,88.047L52.696,88.047z"/>
	</g>
</g>
</svg>
