<?xml version="1.0" encoding="utf-8"?>
<!-- Generator: Adobe Illustrator 16.0.0, SVG Export Plug-In . SVG Version: 6.00 Build 0)  -->
<!DOCTYPE svg PUBLIC "-//W3C//DTD SVG 1.1//EN" "http://www.w3.org/Graphics/SVG/1.1/DTD/svg11.dtd">
<svg version="1.1" id="圖層_2" xmlns="http://www.w3.org/2000/svg" xmlns:xlink="http://www.w3.org/1999/xlink" x="0px" y="0px"
	 width="120px" height="120px" viewBox="0 0 120 120" enable-background="new 0 0 120 120" xml:space="preserve">
<path fill="#FFFFFF" d="M83.16,92.961h3.731c0-1.719,1.392-3.109,3.108-3.109v-3.109c-1.717,0-3.108-1.393-3.108-3.111
	c0-1.717,1.392-3.108,3.108-3.108v-3.109c-1.717,0-3.108-1.393-3.108-3.11c0-1.717,1.392-3.109,3.108-3.109v-3.109
	c-1.717,0-3.108-1.394-3.108-3.109c0-1.717,1.392-3.109,3.108-3.109v-3.731c-1.717,0-3.108-1.392-3.108-3.108
	c0-1.718,1.392-3.11,3.108-3.11v-3.109c-1.717,0-3.108-1.393-3.108-3.11c0-1.717,1.392-3.109,3.108-3.109v-3.109
	c-1.717,0-3.108-1.394-3.108-3.11s1.392-3.109,3.108-3.109v-3.108c-1.717,0-3.108-1.393-3.108-3.109H83.16
	c0,1.717-1.393,3.109-3.109,3.109c-1.718,0-3.111-1.393-3.111-3.109h-3.73c0,1.717-1.393,3.109-3.109,3.109
	s-3.109-1.393-3.109-3.109h-3.732c0,1.717-1.392,3.109-3.109,3.109c-1.716,0-3.109-1.393-3.109-3.109h-3.731
	c0,1.717-1.392,3.109-3.109,3.109s-3.11-1.393-3.11-3.109h-3.731c0,1.717-1.392,3.109-3.11,3.109v3.108
	c1.718,0,3.11,1.393,3.11,3.109s-1.392,3.11-3.11,3.11v3.109c1.718,0,3.11,1.393,3.11,3.109c0,1.718-1.392,3.11-3.11,3.11v3.109
	c1.718,0,3.11,1.393,3.11,3.11c0,1.717-1.392,3.108-3.11,3.108v3.731c1.718,0,3.11,1.393,3.11,3.109c0,1.716-1.392,3.109-3.11,3.109
	v3.109c1.718,0,3.11,1.393,3.11,3.109c0,1.718-1.392,3.11-3.11,3.11v3.109c1.718,0,3.11,1.392,3.11,3.108
	c0,1.719-1.392,3.111-3.11,3.111v3.109c1.718,0,3.11,1.391,3.11,3.109h3.731c0-1.719,1.393-3.109,3.11-3.109
	s3.109,1.391,3.109,3.109h3.731c0-1.719,1.393-3.109,3.109-3.109c1.718,0,3.109,1.391,3.109,3.109h3.732
	c0-1.719,1.393-3.109,3.109-3.109s3.109,1.391,3.109,3.109h3.73c0-1.719,1.394-3.109,3.111-3.109
	C81.768,89.852,83.16,91.242,83.16,92.961z M44.601,88.606V31.392h41.045v57.215H44.601z"/>
<g>
	<g>
		<path fill="#FFFFFF" d="M45.378,76.729c-5.702,0-10.796-3.403-12.979-8.671c-2.963-7.153,0.447-15.384,7.6-18.348
			c1.718-0.712,3.524-1.073,5.369-1.073c5.703,0,10.796,3.404,12.978,8.673c1.436,3.464,1.436,7.282,0,10.747
			c-1.436,3.466-4.134,6.165-7.6,7.6C49.029,76.369,47.223,76.729,45.378,76.729z M45.369,50.638c-1.581,0-3.129,0.31-4.604,0.92
			c-6.135,2.542-9.059,9.6-6.518,15.734c1.872,4.518,6.241,7.437,11.131,7.437c1.581,0,3.129-0.31,4.604-0.92
			c2.972-1.23,5.287-3.545,6.518-6.517c1.231-2.973,1.231-6.245,0-9.217C54.628,53.558,50.259,50.638,45.369,50.638z"/>
	</g>
	<g>
		<path fill="#FFFFFF" d="M45.377,72.071c-3.811,0-7.216-2.275-8.674-5.796c-0.959-2.315-0.959-4.866,0-7.182
			c0.959-2.316,2.763-4.12,5.079-5.079c1.148-0.476,2.355-0.717,3.588-0.717c3.811,0,7.215,2.275,8.674,5.796
			c1.981,4.779-0.298,10.279-5.079,12.262C47.816,71.83,46.61,72.071,45.377,72.071z M45.37,55.298c-0.969,0-1.918,0.19-2.822,0.564
			c-1.822,0.755-3.242,2.174-3.997,3.996c-0.754,1.822-0.754,3.829,0,5.651c1.147,2.771,3.827,4.562,6.826,4.562
			c0.969,0,1.918-0.189,2.822-0.563c3.762-1.56,5.555-5.888,3.997-9.648C51.048,57.088,48.369,55.298,45.37,55.298z"/>
	</g>
	<g>
		<path fill="#FFFFFF" d="M30.456,76.884c-0.425,0-0.819-0.272-0.954-0.7c-0.166-0.526,0.127-1.088,0.654-1.254
			c0.187-0.059,0.375-0.125,0.564-0.199c1.727-0.737,3.215-1.97,4.276-3.554c0.307-0.459,0.928-0.581,1.387-0.274
			c0.459,0.308,0.582,0.929,0.274,1.388c-1.277,1.906-3.068,3.391-5.18,4.291c-0.261,0.103-0.492,0.185-0.722,0.257
			C30.657,76.869,30.556,76.884,30.456,76.884z"/>
	</g>
	<g>
		<path fill="#FFFFFF" d="M30.202,70.884c-0.339,0-0.67-0.173-0.858-0.485c-0.285-0.473-0.131-1.087,0.342-1.372
			c0.998-0.6,1.874-1.363,2.605-2.271c0.347-0.43,0.976-0.498,1.406-0.15c0.43,0.347,0.498,0.976,0.151,1.406
			c-0.879,1.091-1.934,2.01-3.133,2.73C30.555,70.838,30.377,70.884,30.202,70.884z"/>
	</g>
	<g>
		<path fill="#FFFFFF" d="M31.695,82.292c-0.465,0-0.881-0.325-0.979-0.799c-0.111-0.541,0.237-1.069,0.778-1.181
			c0.454-0.094,0.909-0.232,1.353-0.413c2.28-0.912,4.189-2.903,5.68-5.921c0.244-0.494,0.844-0.698,1.339-0.453
			c0.495,0.244,0.698,0.845,0.454,1.34c-1.716,3.473-3.979,5.79-6.725,6.89c-0.552,0.224-1.125,0.398-1.699,0.517
			C31.829,82.285,31.762,82.292,31.695,82.292z"/>
	</g>
	<g>
		<path fill="#FFFFFF" d="M30,64.224c-0.256,0-0.513-0.098-0.708-0.294c-0.39-0.392-0.389-1.024,0.002-1.414
			c0.958-0.955,1.768-2.044,2.405-3.238c0.26-0.487,0.865-0.673,1.353-0.411c0.487,0.26,0.671,0.866,0.411,1.353
			c-0.731,1.368-1.659,2.617-2.757,3.711C30.511,64.126,30.255,64.224,30,64.224z"/>
	</g>
	<g>
		<path fill="#FFFFFF" d="M60.606,63.537c-0.761,0-1.523-0.073-2.278-0.222c-0.542-0.106-0.895-0.633-0.789-1.174
			c0.107-0.543,0.632-0.895,1.174-0.789c1.873,0.37,3.796,0.186,5.564-0.529c2.078-0.895,3.203-2.449,4.394-4.094
			c0.409-0.565,0.817-1.129,1.264-1.669l0.506-0.612c2.412-2.942,3.948-4.397,12.458-5.335c0.551-0.057,1.043,0.336,1.104,0.885
			s-0.336,1.043-0.885,1.104c-8.076,0.89-9.097,2.135-11.131,4.615l-0.514,0.622c-0.414,0.502-0.798,1.033-1.182,1.564
			c-1.297,1.792-2.638,3.646-5.244,4.768C63.618,63.247,62.115,63.537,60.606,63.537z"/>
	</g>
	<g>
		<path fill="#FFFFFF" d="M58.571,58.372c-0.431,0-0.862-0.025-1.291-0.075c-0.549-0.063-0.942-0.56-0.878-1.108
			c0.063-0.549,0.566-0.945,1.108-0.878c1.567,0.178,3.167-0.042,4.628-0.644c2.083-0.897,3.208-2.451,4.398-4.096
			c0.399-0.552,0.812-1.123,1.266-1.672l0.506-0.612c2.411-2.942,3.948-4.397,12.458-5.334c0.554-0.064,1.043,0.336,1.104,0.885
			c0.061,0.549-0.336,1.043-0.885,1.104c-8.076,0.889-9.097,2.134-11.13,4.614l-0.515,0.623c-0.415,0.503-0.799,1.035-1.184,1.566
			c-1.297,1.792-2.638,3.645-5.242,4.766C61.529,58.081,60.051,58.372,58.571,58.372z"/>
	</g>
	<g>
		<path fill="#FFFFFF" d="M62.89,68.694c-1.654,0-3.437-0.324-5.334-0.972c-0.523-0.178-0.802-0.746-0.624-1.27
			c0.178-0.521,0.745-0.806,1.269-0.623c3.193,1.089,5.953,1.146,8.2,0.174c2.11-0.914,3.23-2.462,4.417-4.102
			c0.398-0.552,0.811-1.122,1.265-1.672l0.504-0.611c2.412-2.943,3.948-4.399,12.46-5.336c0.556-0.061,1.043,0.336,1.104,0.885
			s-0.336,1.043-0.885,1.104c-8.078,0.889-9.099,2.135-11.131,4.616l-0.513,0.621c-0.416,0.504-0.8,1.035-1.184,1.565
			c-1.292,1.786-2.628,3.633-5.242,4.766C65.88,68.409,64.44,68.694,62.89,68.694z"/>
	</g>
	<g>
		<path fill="#FFFFFF" d="M56.454,53.201c-1.378,0-2.84-0.226-4.377-0.677c-0.53-0.156-0.833-0.711-0.678-1.241
			c0.156-0.53,0.714-0.833,1.241-0.678c2.805,0.825,5.271,0.792,7.335-0.094c2.1-0.904,3.224-2.458,4.415-4.103
			c0.408-0.565,0.817-1.129,1.264-1.67l0.532-0.64c2.416-2.926,3.954-4.374,12.446-5.308c0.555-0.061,1.043,0.336,1.104,0.885
			s-0.336,1.043-0.885,1.104c-8.062,0.886-9.149,2.203-11.123,4.593l-0.538,0.647c-0.412,0.5-0.796,1.03-1.18,1.561
			c-1.297,1.792-2.638,3.646-5.245,4.768C59.442,52.917,58,53.201,56.454,53.201z"/>
	</g>
</g>
</svg>
